<svg xmlns="http://www.w3.org/2000/svg" version="1.1" xmlns:xlink="http://www.w3.org/1999/xlink" xmlns:svgjs="http://svgjs.dev/svgjs" viewBox="0 0 800 800"><defs><linearGradient x1="50%" y1="0%" x2="50%" y2="100%" id="ffflurry-grad" gradientTransform="rotate(270)"><stop stop-color="hsl(238, 82%, 13%)" stop-opacity="1" offset="0%"></stop><stop stop-color="hsl(272, 99%, 54%)" stop-opacity="1" offset="45%"></stop><stop stop-color="hsl(212, 72%, 59%)" stop-opacity="1" offset="100%"></stop></linearGradient></defs><rect width="100%" height="100%" fill="hsl(238, 82%, 13%)"></rect><g fill="url(#ffflurry-grad)"><rect width="226" height="3" x="549" y="302.5" rx="1.5" transform="rotate(45, 662, 304)" opacity="0.52"></rect><rect width="349" height="3" x="317.5" y="55.5" rx="1.5" transform="rotate(45, 492, 57)" opacity="0.86"></rect><rect width="493" height="3" x="-4.5" y="37.5" rx="1.5" transform="rotate(45, 242, 39)" opacity="0.36"></rect><rect width="175" height="3" x="436.5" y="491.5" rx="1.5" transform="rotate(45, 524, 493)" opacity="0.28"></rect><rect width="107" height="3" x="568.5" y="598.5" rx="1.5" transform="rotate(45, 622, 600)" opacity="0.53"></rect><rect width="366" height="3" x="-32" y="180.5" rx="1.5" transform="rotate(45, 151, 182)" opacity="0.11"></rect><rect width="406" height="3" x="373" y="49.5" rx="1.5" transform="rotate(45, 576, 51)" opacity="0.44"></rect><rect width="268" height="3" x="3" y="319.5" rx="1.5" transform="rotate(45, 137, 321)" opacity="0.93"></rect><rect width="109" height="3" x="703.5" y="486.5" rx="1.5" transform="rotate(45, 758, 488)" opacity="0.32"></rect><rect width="385" height="3" x="274.5" y="419.5" rx="1.5" transform="rotate(45, 467, 421)" opacity="0.29"></rect><rect width="227" height="3" x="-73.5" y="318.5" rx="1.5" transform="rotate(45, 40, 320)" opacity="0.63"></rect><rect width="222" height="3" x="143" y="177.5" rx="1.5" transform="rotate(45, 254, 179)" opacity="0.99"></rect><rect width="206" height="3" x="105" y="242.5" rx="1.5" transform="rotate(45, 208, 244)" opacity="0.10"></rect><rect width="442" height="3" x="-135" y="51.5" rx="1.5" transform="rotate(45, 86, 53)" opacity="0.11"></rect><rect width="105" height="3" x="553.5" y="366.5" rx="1.5" transform="rotate(45, 606, 368)" opacity="0.33"></rect><rect width="536" height="3" x="256" y="267.5" rx="1.5" transform="rotate(45, 524, 269)" opacity="0.55"></rect><rect width="702" height="3" x="-299" y="425.5" rx="1.5" transform="rotate(45, 52, 427)" opacity="0.43"></rect><rect width="315" height="3" x="289.5" y="119.5" rx="1.5" transform="rotate(45, 447, 121)" opacity="0.36"></rect><rect width="324" height="3" x="564" y="425.5" rx="1.5" transform="rotate(45, 726, 427)" opacity="0.12"></rect><rect width="282" height="3" x="470" y="755.5" rx="1.5" transform="rotate(45, 611, 757)" opacity="0.89"></rect><rect width="360" height="3" x="227" y="237.5" rx="1.5" transform="rotate(45, 407, 239)" opacity="0.87"></rect><rect width="245" height="3" x="171.5" y="96.5" rx="1.5" transform="rotate(45, 294, 98)" opacity="0.53"></rect><rect width="584" height="3" x="456" y="589.5" rx="1.5" transform="rotate(45, 748, 591)" opacity="0.41"></rect><rect width="393" height="3" x="235.5" y="487.5" rx="1.5" transform="rotate(45, 432, 489)" opacity="0.52"></rect><rect width="425" height="3" x="4.5" y="476.5" rx="1.5" transform="rotate(45, 217, 478)" opacity="0.85"></rect><rect width="74" height="3" x="294" y="416.5" rx="1.5" transform="rotate(45, 331, 418)" opacity="0.32"></rect><rect width="394" height="3" x="258" y="277.5" rx="1.5" transform="rotate(45, 455, 279)" opacity="0.56"></rect><rect width="473" height="3" x="-67.5" y="45.5" rx="1.5" transform="rotate(45, 169, 47)" opacity="0.49"></rect><rect width="315" height="3" x="175.5" y="479.5" rx="1.5" transform="rotate(45, 333, 481)" opacity="0.18"></rect><rect width="65" height="3" x="305.5" y="213.5" rx="1.5" transform="rotate(45, 338, 215)" opacity="0.36"></rect><rect width="446" height="3" x="130" y="297.5" rx="1.5" transform="rotate(45, 353, 299)" opacity="0.81"></rect><rect width="305" height="3" x="437.5" y="300.5" rx="1.5" transform="rotate(45, 590, 302)" opacity="0.37"></rect><rect width="677" height="3" x="180.5" y="583.5" rx="1.5" transform="rotate(45, 519, 585)" opacity="0.99"></rect><rect width="191" height="3" x="339.5" y="28.5" rx="1.5" transform="rotate(45, 435, 30)" opacity="0.17"></rect><rect width="193" height="3" x="465.5" y="666.5" rx="1.5" transform="rotate(45, 562, 668)" opacity="0.96"></rect><rect width="82" height="3" x="560" y="478.5" rx="1.5" transform="rotate(45, 601, 480)" opacity="0.21"></rect><rect width="451" height="3" x="262.5" y="732.5" rx="1.5" transform="rotate(45, 488, 734)" opacity="0.19"></rect><rect width="808" height="3" x="-349" y="660.5" rx="1.5" transform="rotate(45, 55, 662)" opacity="0.67"></rect><rect width="286" height="3" x="45" y="726.5" rx="1.5" transform="rotate(45, 188, 728)" opacity="0.65"></rect><rect width="272" height="3" x="397" y="376.5" rx="1.5" transform="rotate(45, 533, 378)" opacity="0.88"></rect><rect width="36" height="3" x="294" y="31.5" rx="1.5" transform="rotate(45, 312, 33)" opacity="0.22"></rect><rect width="486" height="3" x="101" y="143.5" rx="1.5" transform="rotate(45, 344, 145)" opacity="0.25"></rect><rect width="109" height="3" x="-29.5" y="34.5" rx="1.5" transform="rotate(45, 25, 36)" opacity="0.85"></rect><rect width="438" height="3" x="548" y="113.5" rx="1.5" transform="rotate(45, 767, 115)" opacity="0.08"></rect><rect width="529" height="3" x="345.5" y="227.5" rx="1.5" transform="rotate(45, 610, 229)" opacity="0.55"></rect><rect width="118" height="3" x="515" y="149.5" rx="1.5" transform="rotate(45, 574, 151)" opacity="0.58"></rect><rect width="308" height="3" x="120" y="273.5" rx="1.5" transform="rotate(45, 274, 275)" opacity="0.78"></rect><rect width="225" height="3" x="122.5" y="546.5" rx="1.5" transform="rotate(45, 235, 548)" opacity="0.50"></rect><rect width="182" height="3" x="516" y="424.5" rx="1.5" transform="rotate(45, 607, 426)" opacity="0.79"></rect><rect width="98" height="3" x="183" y="649.5" rx="1.5" transform="rotate(45, 232, 651)" opacity="0.98"></rect><rect width="347" height="3" x="572.5" y="732.5" rx="1.5" transform="rotate(45, 746, 734)" opacity="0.88"></rect><rect width="439" height="3" x="482.5" y="183.5" rx="1.5" transform="rotate(45, 702, 185)" opacity="0.13"></rect><rect width="227" height="3" x="567.5" y="380.5" rx="1.5" transform="rotate(45, 681, 382)" opacity="0.64"></rect><rect width="43" height="3" x="201.5" y="328.5" rx="1.5" transform="rotate(45, 223, 330)" opacity="0.43"></rect><rect width="416" height="3" x="489" y="46.5" rx="1.5" transform="rotate(45, 697, 48)" opacity="0.32"></rect><rect width="378" height="3" x="41" y="400.5" rx="1.5" transform="rotate(45, 230, 402)" opacity="0.71"></rect><rect width="170" height="3" x="210" y="593.5" rx="1.5" transform="rotate(45, 295, 595)" opacity="0.42"></rect><rect width="553" height="3" x="478.5" y="301.5" rx="1.5" transform="rotate(45, 755, 303)" opacity="0.71"></rect><rect width="114" height="3" x="118" y="119.5" rx="1.5" transform="rotate(45, 175, 121)" opacity="0.12"></rect><rect width="212" height="3" x="-14" y="549.5" rx="1.5" transform="rotate(45, 92, 551)" opacity="0.30"></rect><rect width="173" height="3" x="211.5" y="359.5" rx="1.5" transform="rotate(45, 298, 361)" opacity="0.43"></rect><rect width="297" height="3" x="311.5" y="186.5" rx="1.5" transform="rotate(45, 460, 188)" opacity="0.68"></rect><rect width="225" height="3" x="562.5" y="666.5" rx="1.5" transform="rotate(45, 675, 668)" opacity="0.44"></rect><rect width="596" height="3" x="63" y="647.5" rx="1.5" transform="rotate(45, 361, 649)" opacity="0.24"></rect><rect width="52" height="3" x="24" y="133.5" rx="1.5" transform="rotate(45, 50, 135)" opacity="0.21"></rect><rect width="267" height="3" x="-50.5" y="756.5" rx="1.5" transform="rotate(45, 83, 758)" opacity="0.94"></rect><rect width="629" height="3" x="-260.5" y="222.5" rx="1.5" transform="rotate(45, 54, 224)" opacity="0.78"></rect><rect width="324" height="3" x="-29" y="249.5" rx="1.5" transform="rotate(45, 133, 251)" opacity="0.92"></rect><rect width="158" height="3" x="381" y="339.5" rx="1.5" transform="rotate(45, 460, 341)" opacity="0.62"></rect><rect width="169" height="3" x="286.5" y="547.5" rx="1.5" transform="rotate(45, 371, 549)" opacity="0.14"></rect><rect width="143" height="3" x="323.5" y="740.5" rx="1.5" transform="rotate(45, 395, 742)" opacity="0.83"></rect><rect width="549" height="3" x="167.5" y="608.5" rx="1.5" transform="rotate(45, 442, 610)" opacity="0.44"></rect><rect width="143" height="3" x="322.5" y="373.5" rx="1.5" transform="rotate(45, 394, 375)" opacity="0.65"></rect><rect width="582" height="3" x="356" y="527.5" rx="1.5" transform="rotate(45, 647, 529)" opacity="0.41"></rect><rect width="323" height="3" x="214.5" y="49.5" rx="1.5" transform="rotate(45, 376, 51)" opacity="0.88"></rect><rect width="200" height="3" x="44" y="419.5" rx="1.5" transform="rotate(45, 144, 421)" opacity="0.34"></rect><rect width="602" height="3" x="-4" y="750.5" rx="1.5" transform="rotate(45, 297, 752)" opacity="0.75"></rect></g></svg>